<?xml version="1.0" encoding="UTF-8"?>
<svg id="Layer_2" data-name="Layer 2" xmlns="http://www.w3.org/2000/svg" viewBox="0 0 572.14 425.99">
  <defs>
    <style>
      .cls-1 {
        fill: #273646;
        font-family: OpenSans-SemiBoldItalic, 'Open Sans';
        font-size: 67.44px;
        font-style: italic;
        font-weight: 600;
      }

      .cls-2 {
        fill: #263745;
        font-family: Poppins-Bold, Poppins;
        font-size: 134.42px;
        font-weight: 700;
      }

      .cls-3 {
        fill: #0074d9;
      }
    </style>
  </defs>
  <g id="Layer_1-2" data-name="Layer 1">
    <g>
      <g>
        <g>
          <path class="cls-3" d="M342.75,148.01v-65.17h-86.76c-.12-2.13-.23-4-.33-5.88-.27-4.96-.07-10-.9-14.87C248.14,23.15,214.37-2.94,175.03.27c-37.67,3.07-66.72,35.42-66.75,74.35-.01,18.17,0,36.33.08,54.5.01,2.8-.96,4.54-2.94,6.69-3.14,3.42-6.25,7.61-7.39,11.99-2.46,9.5,2.98,18.76,11.9,22.41,9.06,3.7,19.42.43,24.68-7.8,5.15-8.05,3.86-18.45-3.06-25.39-1.08-1.08-2.63-2.44-2.65-3.69-.22-9.78-.12-19.56-.12-29.95h97.25v-20.57h-96.45c-.29-2.16-.64-3.89-.75-5.63-1.69-26.87,17.48-51.46,43.46-55.77,27.97-4.65,54.13,11.65,60.91,38.71,1.74,6.93,1.27,14.47,1.41,21.74.32,16.23.45,32.46.44,48.69,0,1.72-1.02,3.93-2.31,5.07-9.25,8.1-10.36,20.99-2.33,29.66,7.8,8.42,20.86,8.63,29.07.47,8.32-8.26,7.69-21.36-1.37-29.67-.91-.83-2.15-1.99-2.16-3.01-.16-9.75-.1-19.51-.1-29.44h66.93v44.39h19.96Z"/>
          <path class="cls-3" d="M29.2,295.54V103.28h69.93v-20.15H8.79v212.4h20.41Z"/>
          <path class="cls-3" d="M322.66,397.04h-192.13v20.25h212.32v-39.71h-20.19v19.46Z"/>
          <path class="cls-3" d="M40.1,405.84c-.07-11.26-8.85-19.97-20.13-19.97-11.17,0-20.05,8.95-19.98,20.13.07,11.23,8.93,20.01,20.14,19.98,11.19-.03,20.03-8.95,19.96-20.14Z"/>
          <path class="cls-3" d="M342.75,148.01h-19.96v-44.39h-66.93c0,9.93-.07,19.68.1,29.44.02,1.02,1.25,2.18,2.16,3.01,9.06,8.31,9.69,21.4,1.37,29.67-8.21,8.16-21.27,7.94-29.07-.47-8.03-8.67-6.92-21.56,2.33-29.66,1.29-1.13,2.31-3.35,2.31-5.07.01-16.23-.12-32.47-.44-48.69-.14-7.27.33-14.8-1.41-21.74-6.78-27.07-32.94-43.36-60.91-38.71-25.98,4.32-45.15,28.9-43.46,55.77.11,1.74.46,3.47.75,5.63h96.45v20.57h-97.25c0,10.39-.1,20.18.12,29.95.03,1.26,1.58,2.61,2.65,3.69,6.92,6.95,8.21,17.35,3.06,25.39-5.26,8.23-15.62,11.5-24.68,7.8-8.92-3.65-14.36-12.91-11.9-22.41,1.13-4.38,4.24-8.57,7.39-11.99,1.98-2.15,2.95-3.89,2.94-6.69-.09-18.17-.1-36.33-.08-54.5.03-38.93,29.08-71.28,66.75-74.35,39.33-3.21,73.11,22.89,79.73,61.82.83,4.87.62,9.91.9,14.87.1,1.87.21,3.75.33,5.88h86.76v65.17Z"/>
          <path class="cls-3" d="M29.2,377.39H8.79V83.13h90.35v27.91H29.2v266.34Z"/>
          <path class="cls-3" d="M315.62,397.04v-19.46h27.23v39.71H56.58v-20.25h259.04Z"/>
          <path class="cls-3" d="M40.1,405.84c.07,11.19-8.77,20.11-19.96,20.14C8.93,426.02.07,417.23,0,406.01c-.07-11.19,8.81-20.14,19.98-20.13,11.28,0,20.06,8.71,20.13,19.97Z"/>
        </g>
        <text class="cls-2" transform="translate(123.57 297.03)"><tspan x="0" y="0">Mirute</tspan></text>
      </g>
      <text class="cls-1" transform="translate(468.13 385.4)"><tspan x="0" y="0">Ltd</tspan></text>
    </g>
  </g>
</svg>